<?xml version="1.0" standalone="no"?>
<!DOCTYPE svg PUBLIC "-//W3C//DTD SVG 20010904//EN"
 "http://www.w3.org/TR/2001/REC-SVG-20010904/DTD/svg10.dtd">
<svg version="1.0" xmlns="http://www.w3.org/2000/svg"
 width="275.000000pt" height="275.000000pt" viewBox="0 0 275.000000 275.000000"
 preserveAspectRatio="xMidYMid meet">
<metadata>
Created by potrace 1.11, written by Peter Selinger 2001-2013
</metadata>
<g transform="translate(0.000000,275.000000) scale(0.100000,-0.100000)"
fill="#000000" stroke="none">
<path d="M1505 1828 c-11 -6 -114 -90 -228 -185 -115 -95 -214 -173 -220 -173
-7 0 -75 43 -152 95 -85 58 -149 95 -165 95 -20 0 -102 -76 -383 -351 -316
-311 -393 -395 -343 -376 8 3 41 9 73 12 46 5 65 2 95 -13 36 -19 36 -19 90 4
29 13 70 23 91 24 34 0 37 2 27 19 -5 11 -32 34 -60 52 -27 18 -50 35 -50 38
0 3 9 20 19 37 28 46 110 113 182 148 58 28 66 37 100 101 44 81 75 112 124
121 57 10 80 -1 116 -58 18 -29 34 -55 36 -57 2 -3 28 -10 59 -16 l55 -11 -63
-89 c-90 -127 -161 -195 -233 -224 -55 -22 -105 -56 -105 -70 0 -3 112 -8 250
-9 290 -4 324 2 385 69 30 33 36 47 33 76 -4 46 -21 52 -50 17 -71 -85 -93
-105 -129 -116 -46 -13 -131 -1 -199 29 l-41 18 80 86 c65 70 88 88 118 94 62
11 89 31 163 120 39 47 74 85 78 85 4 0 8 -30 8 -68 1 -37 7 -80 14 -97 11
-28 13 -29 24 -11 31 52 65 79 156 125 127 66 143 86 138 168 -2 34 -7 65 -11
69 -4 4 -16 -5 -27 -19 -32 -40 -85 -69 -122 -65 -31 3 -33 5 -36 47 -2 24 2
57 9 73 11 28 133 148 150 148 4 0 36 -23 69 -51 62 -51 120 -129 120 -159 0
-9 -30 -55 -66 -101 -124 -157 -256 -369 -229 -369 26 0 74 51 143 153 38 56
78 110 89 119 27 25 102 56 152 64 l44 7 -7 -28 c-4 -16 -17 -42 -28 -57 -11
-16 -19 -31 -17 -33 2 -2 39 2 81 8 l77 11 55 -37 c31 -20 58 -37 60 -37 2 0
9 23 16 52 12 59 21 68 70 68 44 0 125 -52 235 -150 93 -84 314 -254 321 -247
3 2 -71 87 -163 189 -92 101 -242 266 -332 366 -199 220 -195 218 -322 146
-34 -19 -66 -34 -73 -34 -7 0 -70 38 -141 85 -133 87 -165 98 -210 73z"/>
<path d="M1625 1097 c-11 -12 -42 -41 -69 -64 -56 -49 -55 -66 4 -84 58 -18
92 -4 102 41 8 37 1 130 -10 130 -4 0 -16 -10 -27 -23z"/>
<path d="M2253 1074 c-16 -25 -18 -26 -102 -19 -58 4 -96 3 -116 -5 l-30 -12
25 -10 c95 -36 337 -75 355 -56 13 13 -16 77 -46 103 -39 32 -64 32 -86 -1z"/>
</g>
</svg>
